<svg width="184" height="118" viewBox="0 0 184 118" fill="none" xmlns="http://www.w3.org/2000/svg">
<path d="M100.304 2.64976L60.4336 42.4238C59.2688 43.5886 57.6834 44.2428 56.0343 44.2455H3.10441C1.39726 44.2345 0 42.8295 0 41.1265C0 40.3123 0.320955 39.5284 0.890927 38.946L38.1051 1.93212C39.2672 0.731445 40.8581 0.0358822 42.5321 0H99.2249C100.072 0.00276017 100.769 0.701083 100.769 1.54569C100.769 1.95972 100.6 2.35994 100.304 2.64976Z" fill="#2CE27E"/>
<path d="M180.277 0.00276022H116.473C114.816 0.00828056 113.225 0.662441 112.046 1.82447L71.3461 42.4266C70.184 43.5941 69.5282 45.1702 69.5199 46.8152V70.6355C69.4895 72.3247 68.0895 73.6993 66.3934 73.6993C66.374 73.6993 66.3574 73.6993 66.3381 73.6993H42.5431C40.8941 73.702 39.3087 74.3562 38.1438 75.521L0.929663 112.7C0.334789 113.283 0 114.078 0 114.909C0 116.603 1.39726 118 3.09888 118C3.10441 118 3.10994 118 3.11548 118H66.9468C68.5958 117.997 70.1812 117.343 71.3461 116.178L112.046 75.5762C113.222 74.4197 113.881 72.8354 113.873 71.1875V47.3673C113.873 45.656 115.284 44.2483 116.999 44.2483H140.877C142.526 44.2455 144.112 43.5914 145.276 42.4266L182.546 5.30229C183.141 4.71989 183.478 3.92496 183.478 3.09139C183.478 1.39665 182.078 0 180.379 0C180.346 0 180.31 0.00276022 180.277 0.00276022Z" fill="#220C4A"/>
</svg>
